<?xml version="1.0" encoding="utf-8"?>
<!-- Generator: Adobe Illustrator 23.0.1, SVG Export Plug-In . SVG Version: 6.00 Build 0)  -->
<svg version="1.1" xmlns="http://www.w3.org/2000/svg" xmlns:xlink="http://www.w3.org/1999/xlink" x="0px" y="0px"
	 width="118.69px" height="118.68px" viewBox="0 0 118.69 118.68" style="enable-background:new 0 0 118.69 118.68;"
	 xml:space="preserve">
<style type="text/css">
	.st0{fill:#FFFFFF;}
	.st1{stroke:#000000;}
</style>
<g id="Layer_3">
	<g>
		<path class="st0" d="M313.31-200.45c0.13-0.47,0.17-0.88,0.27-1.21c0.03-0.15,0.15-0.37,0.27-0.6l0.34-0.66
			c0.21-0.45,0.49-0.87,0.75-1.3c0.25-0.44,0.55-0.85,0.86-1.24c1.22-1.61,2.74-3.07,4.58-4.15c1.84-1.06,4.08-1.69,6.43-1.46
			c1.18,0.13,2.34,0.53,3.41,1.14c1.06,0.64,1.94,1.54,2.65,2.54c1.35,2.04,1.86,4.4,1.94,6.6c0.08,2.22-0.27,4.36-0.78,6.4
			c-1.1,4.06-2.84,7.8-4.89,11.29l-0.71-4.04c3.63,2.64,6.98,5.94,9.49,9.77c2.58,3.79,4.31,7.91,5.91,11.86
			c1.57,3.96,3.01,7.82,4.58,11.54c1.59,3.71,3.34,7.29,5.32,10.74c3.97,6.89,8.87,13.24,14.37,19.15c5.51,5.91,11.6,11.36,18,16.49
			l0.12,0.1c1.63,1.31,1.9,3.69,0.59,5.32c-0.51,0.64-1.18,1.06-1.91,1.27c-9.28,2.67-18.72,4.77-28.25,6.11
			c-9.53,1.36-19.13,1.98-28.69,2.23c-9.56,0.23-19.1,0.11-28.62-0.11c-9.52-0.32-19.03-0.64-28.55-1.08
			c-0.87-0.04-1.55-0.78-1.51-1.66c0.01-0.21,0.06-0.42,0.15-0.6l0.06-0.12c3.4-7.17,6.07-14.65,8.3-22.27
			c2.26-7.6,4.13-15.32,6.13-23.06c2-7.74,4-15.52,6.5-23.31c1.25-3.9,2.68-7.77,4.46-11.59c0.9-1.91,1.9-3.8,3.05-5.64
			c1.17-1.84,2.55-3.59,4.16-5.2l-0.44,3.3c-1.57-3.16-2.96-6.44-3.92-9.93c-0.47-1.74-0.84-3.54-0.99-5.4
			c-0.15-1.86-0.13-3.79,0.4-5.78c0.3-0.98,0.7-1.99,1.41-2.89c0.68-0.9,1.67-1.68,2.81-2.06c1.14-0.38,2.32-0.32,3.33-0.07
			c1.04,0.24,1.92,0.71,2.71,1.25c1.58,1.09,2.79,2.46,3.81,3.91c0.26,0.36,0.49,0.74,0.71,1.12c0.23,0.37,0.45,0.75,0.64,1.15
			l0.3,0.58l0.14,0.28c0.03,0.07,0.05,0.14,0.07,0.21C313.16-201.24,313.19-200.88,313.31-200.45z M313.32-199.65
			c-0.29-0.32-0.68-0.7-1.01-1.16l-0.24-0.34l-0.19-0.26l-0.38-0.5c-0.24-0.34-0.51-0.65-0.78-0.96c-0.27-0.31-0.53-0.62-0.83-0.91
			c-1.12-1.18-2.38-2.2-3.73-2.85c-1.33-0.66-2.77-0.83-3.67-0.37c-0.88,0.47-1.45,1.51-1.64,2.86c-0.21,1.34-0.1,2.85,0.18,4.35
			c0.27,1.5,0.74,3.02,1.31,4.5c1.12,2.98,2.57,5.89,4.26,8.69c0.6,1,0.46,2.24-0.25,3.08l-0.19,0.22
			c-2.26,2.65-4.01,5.97-5.46,9.49c-1.45,3.53-2.57,7.28-3.69,11.05c-2.18,7.57-4.01,15.38-6.2,23.14
			c-1.09,3.88-2.27,7.75-3.54,11.6c-1.33,3.84-2.68,7.67-4.23,11.44c-3.04,7.55-6.61,14.91-10.67,21.95l-1.3-2.38
			c9.41,1.08,18.87,1.79,28.33,1.82c9.46,0.12,18.93-0.34,28.31-1.37c9.39-1,18.68-2.58,27.85-4.51c9.17-1.95,18.23-4.26,27.1-7.17
			l-1.2,6.69c-6.84-5.05-13.39-10.6-19.45-16.74c-3-3.11-5.88-6.35-8.51-9.83c-2.62-3.48-5.05-7.14-7.15-10.98
			c-2.13-3.83-3.93-7.82-5.48-11.85c-1.58-4.02-2.82-8.07-4.15-11.95c-1.32-3.87-2.75-7.54-4.65-10.81
			c-1.86-3.31-4.37-6.15-7.32-8.64l-0.2-0.17c-1.15-0.97-1.34-2.66-0.51-3.87c2.1-3.01,3.93-6.18,5.14-9.49
			c0.57-1.65,0.99-3.33,1.12-4.97c0.12-1.63-0.1-3.21-0.74-4.5c-0.36-0.61-0.78-1.17-1.33-1.6c-0.56-0.41-1.2-0.76-1.94-0.94
			c-1.47-0.34-3.19-0.15-4.78,0.53c-1.6,0.65-3.11,1.71-4.41,3.01c-0.33,0.32-0.66,0.65-0.95,1.01c-0.3,0.35-0.62,0.7-0.89,1.08
			l-0.42,0.57c-0.14,0.18-0.27,0.37-0.45,0.66C314.04-200.49,313.63-200.04,313.32-199.65z"/>
	</g>
	<g>
		<path d="M190.22,16.41c0-0.24-0.08-0.45-0.11-0.58c-0.02-0.07-0.02-0.13-0.01-0.2c0.02-0.08,0.07-0.22,0.1-0.32
			c0.14-0.46,0.29-0.92,0.47-1.36c0.34-0.9,0.75-1.78,1.24-2.63c0.96-1.7,2.23-3.23,3.65-4.59c1.43-1.35,3.05-2.49,4.69-3.5
			l2.42-1.44c0.39-0.23,0.76-0.46,1.06-0.69c0.3-0.19,0.52-0.51,0.37-0.33l2.58-0.62c0.26,0.17,0.5,0.32,0.76,0.51
			c0.13,0.1,0.26,0.19,0.43,0.34l0.39,0.37c0.49,0.49,0.92,1.03,1.29,1.61c0.73,1.16,1.19,2.43,1.46,3.69
			c0.53,2.54,0.36,5.05-0.1,7.4c-0.47,2.35-1.22,4.6-2.13,6.73c-0.9,2.14-1.96,4.19-3.11,6.16l-0.09-3.4
			c2.52,3.29,4.79,6.85,6.54,10.74c1.77,3.87,2.94,8.07,3.55,12.29c0.61,4.23,0.68,8.48,0.44,12.57c-0.22,4.1-0.68,8.07-1.03,11.91
			c-0.32,3.84-0.56,7.56-0.35,11.17c0.18,3.61,0.8,7.1,1.89,10.48c2.15,6.76,6.4,12.93,11.49,18.46l0.16,0.17
			c1.39,1.51,1.29,3.87-0.22,5.27c-0.39,0.36-0.85,0.62-1.31,0.78c-4.62,1.58-9.32,3.04-14.18,3.94c-4.85,0.92-9.85,1.31-14.8,1.13
			c-4.96-0.19-9.86-0.97-14.56-2.29c-4.71-1.31-9.22-3.09-13.73-4.77c-0.8-0.3-1.21-1.19-0.91-1.99c0.08-0.22,0.21-0.42,0.38-0.57
			l0.15-0.14c2.75-2.63,5.14-5.59,6.61-8.92c1.51-3.31,2.12-6.88,2-10.5c-0.11-3.62-0.82-7.3-1.82-10.98
			c-0.96-3.7-2.15-7.42-3.26-11.26c-1.11-3.83-2.15-7.78-2.85-11.88c-0.7-4.09-1.08-8.34-0.79-12.63c0.26-4.28,1.24-8.57,2.86-12.55
			c1.63-3.99,3.91-7.63,6.56-10.88l-0.23,3.05c-1.95-3.97-3.71-8.12-4.54-12.66c-0.4-2.26-0.63-4.62-0.25-7.09
			c0.19-1.23,0.58-2.49,1.31-3.68c0.37-0.59,0.84-1.15,1.41-1.62c0.25-0.21,0.71-0.52,0.99-0.63c0.31-0.14,0.56-0.25,0.87-0.37
			l2.13,1.72c0.04-0.21-0.01-0.44-0.05-0.54c-0.05-0.11-0.08-0.13-0.08-0.13c0,0.02,0.09,0.12,0.2,0.22
			c0.23,0.21,0.54,0.46,0.86,0.7c0.64,0.49,1.34,1,1.99,1.56c1.32,1.11,2.55,2.36,3.6,3.74c1.05,1.38,1.92,2.88,2.57,4.46
			c0.33,0.79,0.62,1.59,0.86,2.4c0.12,0.4,0.23,0.81,0.33,1.22l0.14,0.61c0.03,0.11,0,0.06-0.06,0.1
			C190.34,16.22,190.26,16.3,190.22,16.41z M190.2,17.21c-0.09-0.09-0.24-0.21-0.35-0.38c-0.12-0.15-0.2-0.41-0.23-0.49l-0.22-0.57
			c-0.15-0.38-0.3-0.75-0.47-1.12c-0.33-0.74-0.69-1.45-1.09-2.14c-0.81-1.37-1.75-2.65-2.83-3.78c-1.08-1.13-2.29-2.12-3.6-2.99
			c-0.66-0.44-1.32-0.85-2.04-1.3c-0.36-0.23-0.72-0.45-1.13-0.76c-0.21-0.16-0.42-0.33-0.68-0.64c-0.13-0.15-0.27-0.36-0.4-0.65
			c-0.12-0.29-0.2-0.73-0.12-1.15l2.13,1.72c-0.18,0.1-0.41,0.23-0.57,0.33c-0.2,0.13-0.16,0.14-0.31,0.28
			c-0.22,0.24-0.41,0.54-0.56,0.88c-0.3,0.68-0.45,1.53-0.5,2.41c-0.09,1.78,0.27,3.72,0.82,5.6c0.55,1.89,1.33,3.75,2.17,5.59
			c0.85,1.84,1.83,3.63,2.88,5.4c0.54,0.91,0.47,2.02-0.09,2.84l-0.14,0.21c-2.1,3.09-3.9,6.33-5.07,9.76
			c-1.22,3.41-1.84,6.99-1.97,10.61c-0.26,7.29,1.61,14.68,3.63,22.26c1.01,3.8,2.03,7.68,2.81,11.72
			c0.72,4.04,1.28,8.25,0.95,12.56c-0.16,2.15-0.52,4.31-1.13,6.4c-0.62,2.09-1.49,4.1-2.58,5.96c-2.18,3.72-5.12,6.82-8.34,9.37
			l-0.38-2.7c4.14,2.31,8.45,4.25,12.99,5.34c2.26,0.56,4.57,0.84,6.87,0.99c2.31,0.09,4.62,0.01,6.9-0.3
			c4.58-0.57,9.02-1.86,13.4-3.3c4.37-1.46,8.71-3.1,12.99-4.93l-1.38,6.22c-2.9-2.94-5.66-6.1-8.06-9.6
			c-2.39-3.5-4.44-7.34-5.9-11.45c-1.47-4.1-2.25-8.45-2.5-12.72c-0.22-4.28,0.05-8.46,0.5-12.47c0.43-4.02,1-7.88,1.35-11.66
			c0.33-3.77,0.48-7.46,0.15-11.07c-0.64-7.21-3.31-14.13-7.48-20.4l-0.12-0.19c-0.67-1-0.61-2.28,0.03-3.22
			c2.36-3.39,4.46-7,5.58-10.77c0.54-1.87,0.89-3.79,0.71-5.56c-0.08-0.88-0.29-1.72-0.65-2.46c-0.18-0.37-0.39-0.71-0.64-1.02
			l-0.18-0.22c-0.03-0.04-0.11-0.12-0.19-0.19c-0.16-0.15-0.36-0.33-0.54-0.47l2.58-0.62c-0.62,0.99-1.19,1.23-1.67,1.55
			c-0.49,0.28-0.94,0.5-1.38,0.7l-2.53,1.16c-1.64,0.77-3.18,1.64-4.62,2.69c-1.42,1.05-2.72,2.29-3.79,3.72
			c-0.55,0.71-1.04,1.46-1.48,2.26c-0.22,0.39-0.43,0.8-0.62,1.22c-0.05,0.11-0.09,0.19-0.15,0.33c-0.06,0.15-0.14,0.31-0.23,0.47
			C190.57,16.77,190.35,17.01,190.2,17.21z"/>
	</g>
	<g>
		<path d="M310.87,90.75c1.82,2.19,3.65,4.43,5.49,6.71l5.54,6.96l5.57,7.15l5.55,7.32l-5.26,2.23c-0.65-2.42-1.24-4.86-1.86-7.29
			l-1.84-7.29l-3.51-14.62c-0.5-2.1,0.79-4.21,2.89-4.71c0.27-0.07,0.55-0.1,0.82-0.11l0.22,0l15.9-0.3
			c1.7-0.18,3.32-0.94,4.52-2.17c1.22-1.21,1.96-2.85,2.11-4.56l0.68-32.26l0.23-8.14l0.33-8.14l0.2-4.07l0.05-1.02l0.02-0.49
			l0-0.39c0.03-0.52-0.03-1.04-0.1-1.56c-0.3-2.08-1.44-4.07-3.13-5.49c-0.84-0.71-1.82-1.27-2.88-1.65
			c-0.27-0.08-0.53-0.19-0.81-0.25l-0.83-0.18l-0.85-0.09c-0.29-0.03-0.66-0.03-0.99-0.05c-2.71-0.1-5.43-0.24-8.14-0.31
			c-5.43-0.16-10.86-0.27-16.28-0.26c-5.43,0-10.86,0.12-16.28,0.35c-1.36,0.05-2.71,0.13-4.07,0.2c-0.66,0.04-1.4,0.06-1.99,0.12
			c-0.28,0.04-0.57,0.06-0.85,0.1l-0.83,0.18c-2.18,0.6-4.05,2-5.24,3.78c-0.6,0.89-1.04,1.87-1.27,2.88
			c-0.11,0.51-0.2,1.02-0.22,1.53c-0.03,0.25-0.02,0.51-0.01,0.77c0.01,0.25,0,0.49,0.02,0.86c0.13,2.71,0.29,5.43,0.39,8.14
			c0.21,5.43,0.29,10.86,0.26,16.28c-0.04,5.43-0.11,10.86-0.25,16.28l-0.24,8.14l-0.15,4.07c-0.05,1.12,0.03,2.07,0.31,3.08
			c0.53,1.99,1.87,3.79,3.65,5c0.89,0.61,1.89,1.07,2.97,1.34c0.54,0.15,1.08,0.21,1.67,0.27l2.13,0.14
			C300.16,89.67,305.69,90.15,310.87,90.75z M310.49,91.46c-5.68,0.61-11.01,1.09-16.2,1.51l-1.94,0.14
			c-0.77,0.02-1.59,0.02-2.38-0.08c-1.6-0.19-3.18-0.67-4.64-1.42c-2.93-1.48-5.28-4.14-6.5-7.28c-0.62-1.55-0.93-3.32-1-4.91
			l-0.15-4.07l-0.24-8.14c-0.13-5.43-0.2-10.86-0.25-16.28c-0.03-5.43,0.05-10.86,0.26-16.28c0.1-2.71,0.26-5.43,0.39-8.14
			c0.01-0.31,0.04-0.74,0.09-1.17c0.04-0.42,0.09-0.84,0.18-1.26c0.15-0.83,0.4-1.64,0.68-2.43c0.59-1.57,1.48-3.02,2.57-4.25
			c2.17-2.48,5.19-4.1,8.34-4.58l1.18-0.13c0.39-0.02,0.79-0.01,1.18-0.02c0.76,0.01,1.38,0.06,2.08,0.09
			c1.36,0.07,2.71,0.15,4.07,0.2c5.43,0.23,10.86,0.35,16.28,0.35c5.43,0.01,10.86-0.1,16.28-0.26c2.71-0.07,5.43-0.21,8.14-0.31
			c0.35-0.01,0.65-0.04,1.04-0.03l1.18,0.01l1.18,0.13c0.39,0.05,0.78,0.15,1.17,0.23c1.55,0.38,3.04,1.03,4.38,1.93
			c2.68,1.79,4.77,4.59,5.63,7.82c0.21,0.8,0.39,1.63,0.45,2.46l0.06,0.63l0.03,0.52l0.05,1.02l0.2,4.07l0.33,8.14l0.23,8.14
			l0.36,16.28l0.15,8.14l0.07,4.07l0.04,2.04l0.02,1.02c0.01,0.14,0,0.4-0.01,0.63l-0.03,0.69c-0.24,3.7-1.83,7.33-4.44,9.97
			c-2.61,2.65-6.18,4.35-9.89,4.66l-1.39,0.06l-1.03-0.01l-2.04-0.02l-4.07-0.05l-8.14-0.17l3.92-4.82l2.62,14.8l1.23,7.42
			c0.4,2.47,0.83,4.94,1.21,7.42l0.05,0.33c0.24,1.57-0.85,3.03-2.42,3.27c-1.19,0.18-2.32-0.4-2.9-1.37l-4.41-7.39l-4.39-7.56
			l-4.42-7.75L310.49,91.46z"/>
	</g>
	<g>
		<g>
			<path class="st1" d="M325.4,68.38c-1.08,0-2.66-0.58-3.38-1.37c-0.94-0.94-1.37-1.94-1.73-3.24c-2.88,1.94-6.41,4.61-8.64,4.61
				c-5.11,0-8.79-4.25-8.79-8.86c0-3.53,1.94-5.83,5.9-7.2c4.39-1.51,9.79-3.38,11.38-4.68v-1.44c0-5.11-2.59-8.06-6.34-8.06
				c-1.66,0-2.66,0.79-3.38,1.66c-0.79,1.01-1.3,2.59-1.94,4.68c-0.36,1.15-1.01,1.66-2.09,1.66c-1.37,0-3.17-1.44-3.17-3.17
				c0-1.01,0.94-1.87,2.38-2.88c2.09-1.51,6.26-4.18,10.37-5.04c2.16,0,4.39,0.65,6.05,1.94c2.52,2.16,3.67,4.61,3.67,8.35v13.9
				c0,3.31,1.22,4.32,2.52,4.32c0.86,0,1.8-0.36,2.59-0.79l0.72,2.02L325.4,68.38z M320.15,50.17c-1.58,0.79-5.04,2.3-6.7,3.02
				c-2.74,1.22-4.39,2.59-4.39,5.26c0,3.82,2.88,5.54,5.18,5.54c1.87,0,4.46-1.15,5.9-2.59C320.15,58.02,320.15,53.55,320.15,50.17z
				"/>
		</g>
	</g>
</g>
<g id="Layer_2">
	<g>
		<path class="st0" d="M20.76,118.37c2.84-6.23,6.31-12.19,10.21-17.86c1.96-2.83,4.01-5.6,6.17-8.3c2.16-2.69,4.43-5.29,6.76-7.84
			c9.36-10.15,20.11-18.99,30.83-27.14c2.67-2.04,5.34-4.04,7.83-6.11c0.64-0.5,1.24-1.03,1.84-1.54c0.55-0.47,1.09-0.96,1.58-1.49
			c1-1.05,1.9-2.2,2.68-3.43c1.51-2.47,2.5-5.38,2.4-8.18c-0.07-1.39-0.43-2.72-1.13-3.75c-0.69-1.04-1.76-1.72-3.07-1.96
			c-1.32-0.23-2.83-0.03-4.29,0.47c-1.46,0.5-2.89,1.25-4.24,2.14c-2.71,1.78-5.14,4.06-7.38,6.51c-2.23,2.46-4.25,5.13-6.11,7.9
			c-1.88,2.76-3.58,5.65-5.21,8.57l-6.79,12.22l2.34-14.11c0.91-5.49,1.19-11.02,1.06-16.43c-0.17-5.41-0.82-10.77-2.34-15.7
			c-0.75-2.46-1.76-4.78-3-6.77c-1.2-1.97-2.79-3.61-4.03-4.12c-0.62-0.26-1.01-0.26-1.36-0.18c-0.36,0.09-0.85,0.28-1.45,0.81
			c-1.2,1.02-2.5,2.99-3.44,5.2c-1.01,2.2-1.78,4.69-2.44,7.24c-0.64,2.54-1.23,5.32-1.47,7.6c-0.24,2.45-0.17,5.08,0.07,7.75
			c0.26,2.67,0.58,5.4,1.05,8.13c1.82,10.98,4.65,22.16,6.08,33.58l-0.87,0.24c-2.27-5.27-4.47-10.53-6.55-15.86
			c-1.06-2.66-2.07-5.35-3.02-8.07c-0.97-2.71-1.89-5.46-2.69-8.28c-1.62-5.62-2.95-11.46-2.93-17.93c0-1.6,0.21-3.37,0.42-4.77
			c0.21-1.49,0.47-2.98,0.76-4.48c0.65-2.99,1.46-6,2.75-9.01c0.65-1.5,1.41-3,2.38-4.48c0.96-1.48,2.16-2.95,3.76-4.27
			c1.57-1.31,3.69-2.47,6.16-2.82c1.23-0.17,2.48-0.12,3.67,0.1c1.19,0.22,2.27,0.64,3.25,1.13c1.94,1.01,3.45,2.33,4.65,3.71
			c1.22,1.38,2.18,2.83,2.99,4.3c1.6,2.95,2.66,5.98,3.4,9.01c0.74,3.03,1.21,6.07,1.4,9.11c0.2,3.03,0.21,6.05-0.05,9.03
			c-0.44,5.97-1.75,11.77-3.45,17.36l-4.45-1.89c4.12-5.52,8.48-10.88,13.35-15.81c2.43-2.46,5.03-4.79,7.96-6.79
			c1.48-0.98,3.03-1.89,4.75-2.58c1.72-0.65,3.62-1.17,5.68-0.98c2.05,0.13,4.19,1.15,5.63,2.77c1.46,1.61,2.25,3.61,2.63,5.56
			c0.78,3.95,0.07,7.92-1.4,11.5c-0.75,1.79-1.7,3.51-2.87,5.06c-0.57,0.79-1.2,1.53-1.85,2.26c-0.63,0.65-1.24,1.31-1.88,1.92
			c-2.55,2.47-5.18,4.71-7.82,6.88c-5.29,4.32-10.67,8.34-15.87,12.56c-5.21,4.2-10.29,8.51-15.18,13.04
			c-4.89,4.53-9.63,9.24-14.12,14.22c-4.53,4.95-8.76,10.18-12.99,15.53L20.76,118.37z"/>
	</g>
	<g>
		<path d="M428.11,47.35c1.34,6.39,3.66,12.58,7.01,18.14c3.27,5.61,7.49,10.55,12.07,14.99c1.15,1.11,2.31,2.2,3.52,3.24
			c0.59,0.54,1.2,1.04,1.81,1.55l0.91,0.77c0.28,0.24,0.68,0.59,0.75,0.6c0.57,0.32,1.25,0.39,1.81,0.18
			c0.28-0.09,0.53-0.23,0.73-0.43l0.65-0.6L458.2,85l1.77-1.73l0.48-0.46l0.25-0.23l0.39-0.33c0.53-0.44,1.12-0.81,1.74-1.13
			c2.49-1.27,5.52-1.39,8.11-0.35c0.65,0.26,1.27,0.58,1.84,0.96l0.21,0.14l0.14,0.1l0.28,0.2l0.56,0.4
			c0.74,0.54,1.46,1.11,2.15,1.71c1.39,1.19,2.71,2.47,3.93,3.83c2.44,2.72,4.46,5.75,6.14,8.89c0.82,1.58,1.59,3.18,2.25,4.81
			l0.26,0.62c0.12,0.34,0.26,0.67,0.34,1.02c0.2,0.69,0.3,1.41,0.34,2.13c0.06,1.43-0.17,2.86-0.7,4.17
			c-0.52,1.31-1.31,2.5-2.31,3.47c-0.24,0.25-0.52,0.47-0.78,0.69l-0.56,0.41l-1.11,0.81c-0.72,0.56-1.54,1.02-2.32,1.51
			c-0.77,0.51-1.62,0.91-2.45,1.33c-3.35,1.65-7.08,2.71-10.86,2.99c-3.78,0.25-7.56-0.25-11.04-1.35c-3.49-1.1-6.74-2.67-9.67-4.61
			c-2.95-1.91-5.63-4.12-8.08-6.51c-2.46-2.38-4.72-4.91-6.83-7.54c-8.38-10.57-14.62-22.3-20.22-34.3
			c-2.74-6.04-5.29-12.23-6.95-18.84c-0.83-3.3-1.41-6.71-1.6-10.21c-0.16-3.5,0.11-7.1,1-10.64c0.89-3.53,2.45-6.96,4.59-9.98
			c2.13-3.03,4.84-5.59,7.79-7.66c0.75-0.5,1.51-0.97,2.26-1.46c0.77-0.45,1.56-0.86,2.33-1.29c0.31-0.17,0.97-0.51,1.57-0.7
			c0.61-0.22,1.24-0.35,1.87-0.44c1.27-0.15,2.57-0.05,3.79,0.34c1.21,0.39,2.36,1.03,3.29,1.9c0.23,0.22,0.46,0.44,0.66,0.68
			l0.29,0.35l0.2,0.27c0.26,0.37,0.53,0.73,0.77,1.1c1,1.48,1.87,3.03,2.64,4.6c1.51,3.17,2.57,6.47,3.32,9.78
			c0.39,1.65,0.68,3.32,0.92,4.98c0.13,0.83,0.23,1.66,0.34,2.49c0.14,0.92,0.07,1.96-0.18,2.88c-0.53,1.86-1.84,3.43-3.5,4.24
			c-1.59,0.74-3.16,1.22-4.72,1.74c-0.77,0.25-1.56,0.52-2.25,0.85c-0.68,0.32-1.28,0.8-1.76,1.39
			C428.19,44.23,427.82,45.85,428.11,47.35z M427.32,47.5c-0.36-1.72,0.07-3.59,1.15-4.99c0.53-0.71,1.21-1.31,2-1.72
			c0.78-0.4,1.54-0.69,2.31-1.01c1.52-0.62,3.06-1.21,4.38-2.01c1.23-0.75,2.05-2.05,2.24-3.39c0.09-0.69,0.05-1.32-0.16-2
			c-0.22-0.78-0.42-1.56-0.67-2.33c-0.48-1.54-1.01-3.06-1.62-4.53c-1.19-2.96-2.67-5.76-4.41-8.3c-0.86-1.28-1.79-2.48-2.8-3.6
			c-0.25-0.28-0.51-0.55-0.77-0.82l-0.19-0.2l-0.12-0.1c-0.07-0.07-0.15-0.11-0.23-0.17c-0.31-0.21-0.66-0.33-1.02-0.39
			c-0.36-0.05-0.74-0.03-1.09,0.05c-0.17,0.05-0.35,0.1-0.5,0.19c-0.18,0.08-0.24,0.14-0.63,0.38l-1.91,1.2
			c-0.61,0.44-1.2,0.88-1.82,1.3c-4.75,3.56-8.28,8.22-10.15,13.78c-1.94,5.54-2.22,11.88-1.47,18.17
			c0.76,6.31,2.51,12.62,4.98,18.62c4.98,12,12.04,23.3,21.12,32.4c4.52,4.54,9.55,8.52,14.93,11.45c5.37,2.9,11.2,4.59,16.74,3.94
			c2.76-0.34,5.42-1.24,7.9-2.59c0.62-0.35,1.25-0.66,1.83-1.09c0.59-0.41,1.21-0.77,1.76-1.24l0.86-0.67l0.42-0.33
			c0.04-0.05,0.1-0.08,0.13-0.14c0.17-0.19,0.29-0.4,0.36-0.63c0.08-0.22,0.08-0.45,0.07-0.66c-0.03-0.1-0.03-0.2-0.08-0.3
			c-0.01-0.05-0.04-0.09-0.05-0.14l-0.22-0.51c-0.6-1.41-1.27-2.76-1.99-4.08c-1.43-2.63-3.07-5.11-4.99-7.31
			c-0.95-1.11-1.96-2.15-3.05-3.12c-0.54-0.49-1.1-0.94-1.67-1.4l-0.8-0.62c-0.1-0.08-0.21-0.15-0.32-0.2
			c-0.45-0.23-0.98-0.24-1.44-0.06c-0.11,0.05-0.23,0.11-0.34,0.18l-0.09,0.06l-0.21,0.18l-0.43,0.36l-1.85,1.6
			c-0.33,0.28-0.67,0.57-1.03,0.85l-0.55,0.43l-0.3,0.23l-0.42,0.3c-1.13,0.77-2.43,1.28-3.76,1.49c-2.66,0.43-5.46-0.37-7.44-2.12
			c-0.57-0.5-0.74-0.75-1.05-1.08l-0.86-0.94c-0.58-0.62-1.13-1.27-1.67-1.93c-1.1-1.29-2.14-2.64-3.17-3.99
			c-2.02-2.73-3.86-5.58-5.55-8.49c-0.81-1.48-1.63-2.95-2.35-4.46c-0.39-0.74-0.75-1.5-1.09-2.26c-0.35-0.76-0.72-1.51-1.02-2.29
			C430.54,60.33,428.63,53.97,427.32,47.5z"/>
	</g>
</g>
</svg>
